<?xml version="1.0" encoding="UTF-8"?>
<svg id="Layer_1" data-name="Layer 1" xmlns="http://www.w3.org/2000/svg" version="1.1" viewBox="0 300 1000 400">
  <defs>
    <style>
      .cls-1 {
        fill: #ee372f;
      }

      .cls-1, .cls-2, .cls-3, .cls-4, .cls-5, .cls-6, .cls-7, .cls-8, .cls-9, .cls-10, .cls-11, .cls-12 {
        stroke-width: 0px;
      }

      .cls-2 {
        fill: #808183;
      }

      .cls-3 {
        fill: #00adcf;
      }

      .cls-4 {
        fill: #6ebe45;
      }

      .cls-5 {
        fill: #029347;
      }

      .cls-6 {
        fill: #996632;
      }

      .cls-7 {
        fill: #1e429b;
      }

      .cls-8 {
        fill: #fccc0e;
      }

      .cls-9 {
        fill: #f26423;
      }

      .cls-10 {
        fill: #fff;
      }

      .cls-11 {
        fill: #231f20;
      }

      .cls-12 {
        fill: #ac4298;
      }
    </style>
  </defs>
  <g>
    <circle class="cls-8" cx="119.9" cy="424" r="70"/>
    <path class="cls-11" d="M157.1,411.6h-17.7c-.3-2.3-1-4.3-2-6.1s-2.3-3.3-3.8-4.6c-1.6-1.3-3.4-2.2-5.4-2.9s-4.2-1-6.6-1c-4.3,0-8,1.1-11.2,3.2s-5.6,5.2-7.4,9.2-2.6,8.9-2.6,14.6.9,10.9,2.7,14.9c1.8,4,4.2,7,7.4,9.1,3.2,2,6.8,3.1,11,3.1s4.5-.3,6.5-.9,3.8-1.5,5.4-2.7c1.6-1.2,2.9-2.7,3.9-4.4,1-1.7,1.8-3.7,2.2-5.9h17.7c-.5,3.9-1.6,7.5-3.4,11-1.8,3.5-4.3,6.6-7.3,9.4-3.1,2.8-6.7,4.9-10.9,6.5s-9,2.4-14.3,2.4-14-1.7-19.8-5-10.4-8.2-13.7-14.5c-3.3-6.3-5-14-5-23s1.7-16.7,5.1-23,8-11.2,13.8-14.5,12.4-5,19.6-5,9.2.7,13.4,2c4.1,1.4,7.8,3.3,10.9,5.9s5.8,5.7,7.8,9.4c2,3.7,3.3,8,3.9,12.8h-.2,0Z"/>
  </g>
  <g>
    <circle class="cls-3" cx="266.9" cy="424" r="70"/>
    <path class="cls-10" d="M305.6,423.8c0,9-1.7,16.7-5.1,23s-8,11.2-13.9,14.5-12.4,5-19.7,5-14-1.7-19.8-5c-5.9-3.3-10.5-8.2-13.9-14.5s-5.1-14-5.1-23,1.7-16.7,5.1-23c3.4-6.3,8-11.2,13.9-14.5,5.8-3.3,12.4-5,19.8-5s13.9,1.7,19.7,5,10.5,8.1,13.9,14.5c3.4,6.3,5.1,14,5.1,23ZM287.9,423.8c0-5.8-.9-10.8-2.6-14.8s-4.2-7.1-7.3-9.1-6.8-3.1-11.1-3.1-7.9,1-11.1,3.1c-3.1,2.1-5.6,5.1-7.3,9.1s-2.6,8.9-2.6,14.8.9,10.8,2.6,14.8c1.7,4,4.2,7.1,7.3,9.1s6.8,3.1,11.1,3.1,7.9-1,11.1-3.1c3.1-2.1,5.6-5.1,7.3-9.1s2.6-8.9,2.6-14.8Z"/>
  </g>
  <g>
    <circle class="cls-5" cx="413.9" cy="424" r="70"/>
    <path class="cls-10" d="M412.5,466h-30.1v-85h30.4c8.5,0,15.9,1.7,22.1,5.1s10.9,8.2,14.3,14.6c3.3,6.3,5,13.9,5,22.7s-1.7,16.5-5,22.8c-3.3,6.4-8.1,11.2-14.3,14.6-6.2,3.4-13.6,5.1-22.3,5.1h-.1ZM400.4,450.6h11.4c5.3,0,9.8-1,13.4-2.8,3.6-1.9,6.4-4.8,8.2-8.8s2.8-9.2,2.8-15.5-.9-11.4-2.8-15.4c-1.8-4-4.6-6.9-8.2-8.8s-8.1-2.8-13.4-2.8h-11.5v54.2h.1Z"/>
  </g>
  <g>
    <circle class="cls-7" cx="560.9" cy="424" r="70"/>
    <path class="cls-10" d="M533.8,464.9v-82.7h55.8v14.4h-38.3v19.7h35.4v14.4h-35.4v19.8h38.4v14.4h-55.9Z"/>
  </g>
  <path class="cls-10" d="M697.5,482.1c-7.8,0-14.6-1.4-20.3-4.2-5.7-2.8-10-6.6-13.1-11.4s-4.6-10.2-4.6-16.1.9-8.4,2.7-11.8,4.2-6.6,7.4-9.5,6.9-5.8,11.1-8.7l22-14.5c2.8-1.8,4.9-3.7,6.3-5.7s2-4.2,2-6.6-.9-4.3-2.7-6.3-4.4-2.9-7.7-2.8c-2.2,0-4.1.5-5.8,1.5s-2.9,2.2-3.8,3.8c-.9,1.6-1.4,3.3-1.4,5.2s.7,4.8,2,7.2c1.3,2.4,3.1,5,5.3,7.7s4.6,5.6,7.3,8.8l53.8,61.7h-24.6l-44.9-50c-3-3.4-5.9-6.9-8.8-10.5-2.9-3.7-5.4-7.6-7.3-11.7-2-4.2-2.9-8.7-2.9-13.5s1.3-10.5,3.8-14.9c2.6-4.4,6.2-7.9,10.8-10.4s10.1-3.9,16.3-3.9,11.3,1.2,15.7,3.7,7.8,5.7,10.2,9.8c2.4,4,3.6,8.5,3.6,13.3s-1.3,10.2-4,14.5-6.3,8.2-11.1,11.7l-23.2,16.7c-3.1,2.3-5.5,4.6-7,7s-2.2,4.7-2.2,6.8.7,5.1,2,7.3,3.2,3.8,5.7,5.1c2.4,1.2,5.3,1.9,8.6,1.9s7.9-.9,11.8-2.7c3.9-1.8,7.4-4.4,10.6-7.8,3.2-3.4,5.8-7.4,7.7-12s2.9-9.8,2.9-15.5h19.5c0,6.9-.8,13.2-2.3,18.8s-3.6,10.4-6.3,14.5-5.8,7.5-9.2,10.1c-1.1.7-2.2,1.4-3.2,2s-2.1,1.3-3.2,2c-4.2,3.4-8.9,5.9-14.1,7.4-5.2,1.5-10.3,2.3-15.4,2.3h0v-.3h0Z"/>
  <g>
    <circle class="cls-4" cx="119.9" cy="571" r="70"/>
    <path class="cls-10" d="M157.1,558.7h-17.7c-.3-2.3-1-4.3-2-6.1s-2.3-3.3-3.8-4.6c-1.6-1.3-3.4-2.2-5.4-2.9s-4.2-1-6.6-1c-4.3,0-8,1.1-11.2,3.2-3.2,2.1-5.6,5.2-7.4,9.2s-2.6,8.9-2.6,14.7.9,10.8,2.7,14.9c1.8,4,4.2,7,7.4,9.1,3.2,2,6.8,3.1,11,3.1s4.5-.3,6.5-.9c2-.6,3.8-1.5,5.4-2.7,1.6-1.2,2.9-2.7,3.9-4.4s1.8-3.7,2.2-5.9h17.7c-.5,3.9-1.6,7.5-3.4,11-1.8,3.5-4.3,6.7-7.3,9.4-3.1,2.8-6.7,4.9-10.9,6.5s-9,2.4-14.3,2.4-14-1.7-19.8-5-10.4-8.2-13.7-14.5c-3.3-6.3-5-14-5-23s1.7-16.7,5.1-23,8-11.2,13.8-14.5,12.4-5,19.6-5,9.2.7,13.4,2c4.1,1.3,7.8,3.3,10.9,5.9s5.8,5.7,7.8,9.4,3.3,8,3.9,12.8h-.2,0Z"/>
  </g>
  <g>
    <circle class="cls-1" cx="266.9" cy="571" r="70"/>
    <path class="cls-10" d="M305.6,570.8c0,9-1.7,16.7-5.1,23s-8,11.2-13.9,14.5-12.4,5-19.7,5-14-1.7-19.8-5c-5.9-3.3-10.5-8.2-13.9-14.5s-5.1-14-5.1-23,1.7-16.7,5.1-23c3.4-6.3,8-11.2,13.9-14.5,5.8-3.3,12.4-5,19.8-5s13.9,1.7,19.7,5,10.5,8.2,13.9,14.5,5.1,14,5.1,23ZM287.9,570.8c0-5.8-.9-10.8-2.6-14.8s-4.2-7.1-7.3-9.1-6.8-3.1-11.1-3.1-7.9,1-11.1,3.1c-3.1,2.1-5.6,5.1-7.3,9.1s-2.6,8.9-2.6,14.8.9,10.8,2.6,14.8c1.7,4,4.2,7.1,7.3,9.1s6.8,3.1,11.1,3.1,7.9-1,11.1-3.1,5.6-5.1,7.3-9.1,2.6-8.9,2.6-14.8Z"/>
  </g>
  <g>
    <circle class="cls-12" cx="413.9" cy="571" r="70"/>
    <path class="cls-10" d="M387.9,613v-85h56.3v14.8h-38.3v20.2h34.6v14.8h-34.6v35.1h-18Z"/>
  </g>
  <g>
    <circle class="cls-9" cx="560.9" cy="571" r="70"/>
    <path class="cls-10" d="M534.9,613v-85h56.3v14.8h-38.3v20.2h34.6v14.8h-34.6v35.1h-18Z"/>
  </g>
  <g>
    <circle class="cls-2" cx="707.9" cy="571" r="70"/>
    <path class="cls-10" d="M680.8,611.9v-82.7h55.8v14.4h-38.3v19.7h35.4v14.4h-35.4v19.8h38.4v14.4h-55.9Z"/>
  </g>
  <g>
    <circle class="cls-6" cx="854.9" cy="571" r="70"/>
    <path class="cls-10" d="M827.8,611.9v-82.7h55.8v14.4h-38.3v19.7h35.4v14.4h-35.4v19.8h38.4v14.4h-55.9Z"/>
  </g>
</svg>